<?xml version="1.0" encoding="UTF-8"?>
<svg version="1.1" xmlns="http://www.w3.org/2000/svg" width="128" height="133">
<path d="M0 0 C13.52338645 10.27241127 23.41643889 25.02207383 26 42 C27.01377229 54.33366446 27.03788909 66.5367376 22 78 C21.63777344 78.87398438 21.27554688 79.74796875 20.90234375 80.6484375 C14.1868175 95.44535975 1.39560247 107.54765268 -13.69921875 113.4453125 C-30.59306741 119.3548535 -48.0950022 119.58610746 -64.796875 112.61328125 C-81.41324787 104.24430321 -93.6208202 91.16169771 -100.0625 73.625 C-104.4015342 59.45802676 -104.19527232 41.53371989 -98 28 C-97.2884375 26.39511719 -97.2884375 26.39511719 -96.5625 24.7578125 C-88.53996296 8.36560941 -75.16715507 -2.82260053 -58 -9 C-38.09705961 -14.77763283 -17.12749333 -11.29383979 0 0 Z " fill="#1DD55F" transform="translate(102,13)"/>
<path d="M0 0 C2.22498679 0.00850066 4.44738396 -0.02037065 6.67211914 -0.05200195 C21.9029606 -0.12602766 35.9798917 3.32324609 49.92407227 9.44604492 C50.68977539 9.7631543 51.45547852 10.08026367 52.24438477 10.40698242 C54.17407227 11.32104492 54.17407227 11.32104492 56.92407227 13.44604492 C58.11157227 16.94604492 58.11157227 16.94604492 57.92407227 20.44604492 C56.36157227 22.94604492 56.36157227 22.94604492 53.92407227 24.44604492 C49.42491551 24.44604492 46.22199589 22.60435422 42.30297852 20.55932617 C28.80070041 14.24052607 14.44771764 13.27842732 -0.20092773 13.13354492 C-1.82744263 13.10695801 -1.82744263 13.10695801 -3.48681641 13.07983398 C-10.16096402 13.08590277 -15.93427156 13.9226898 -22.31762695 15.8984375 C-25.59005872 16.54811571 -27.86905106 16.34235765 -31.07592773 15.44604492 C-33.38954576 11.97561789 -33.58613502 10.52770319 -33.07592773 6.44604492 C-25.29869386 -1.07384123 -10.18071427 -0.05896381 0 0 Z " fill="#000502" transform="translate(53.075927734375,35.553955078125)"/>
<path d="M0 0 C1.83111328 -0.01836914 1.83111328 -0.01836914 3.69921875 -0.03710938 C18.13076904 -0.06026159 37.87768943 2.36989727 49.375 12.1875 C50.5625 15.3125 50.5625 15.3125 50.375 18.1875 C49.385 19.6725 49.385 19.6725 48.375 21.1875 C43.09184842 22.24413032 39.47176278 19.88528255 34.94921875 17.4921875 C31.20231727 15.59315094 27.41309576 14.31506601 23.375 13.1875 C22.68792969 12.98125 22.00085938 12.775 21.29296875 12.5625 C9.21829198 9.51739763 -4.79440947 10.4009703 -16.8984375 12.75 C-19.9054456 13.23249987 -22.58713144 13.46133604 -25.625 13.1875 C-27.625 10.1875 -27.625 10.1875 -27.75 7.1875 C-26.625 4.1875 -26.625 4.1875 -24.9453125 3.16796875 C-16.71423108 0.01530926 -8.71871289 0.00451747 0 0 Z " fill="#000502" transform="translate(51.625,57.8125)"/>
<path d="M0 0 C0.99 0.99 0.99 0.99 2 2 C1.625 4.625 1.625 4.625 1 7 C-2.25200267 8.03800085 -3.71441939 8.11097496 -6.9453125 6.85546875 C-7.99460938 6.30503906 -9.04390625 5.75460938 -10.125 5.1875 C-25.99772249 -2.43919275 -43.95424844 -0.50618731 -61.10546875 0.87890625 C-62.06066406 0.91886719 -63.01585938 0.95882812 -64 1 C-65 0 -65 0 -65.1875 -2.4375 C-65 -5 -65 -5 -63 -7 C-43.45900996 -12.63281207 -17.35147783 -10.9470697 0 0 Z " fill="#000402" transform="translate(92,88)"/>
</svg>
